{"glyphs":{":":{"x_min":0,"x_max":271,"ha":271,"o":"m 48 374 q 48 410 73 435 q 99 461 135 461 q 171 461 197 435 q 222 410 222 374 q 222 338 197 313 q 171 287 135 287 q 99 287 73 313 q 48 338 48 374 z m 48 78 q 48 114 73 139 q 99 165 135 165 q 171 165 197 139 q 222 114 222 78 q 222 42 197 17 q 171 -9 135 -9 q 99 -9 73 17 q 48 42 48 78 z"},"$":{"x_min":0,"x_max":542,"ha":542,"o":"m 467 604 l 467 481 q 395 536 311 547 l 311 385 q 403 356 452 301 q 502 246 502 182 q 502 109 452 58 q 403 7 311 -9 l 311 -119 l 227 -119 l 227 -9 q 137 5 52 60 l 52 178 q 143 108 227 94 l 227 286 q 45 329 45 477 q 45 545 94 595 q 143 645 227 655 l 227 691 l 311 691 l 311 655 q 383 652 467 604 z m 227 415 l 227 547 q 160 530 160 483 q 160 437 227 415 z m 311 260 l 311 96 q 388 114 388 175 q 388 233 311 260 z"},"?":{"x_min":0,"x_max":375,"ha":375,"o":"m 25 548 l 50 671 q 107 691 166 691 q 242 691 287 653 q 331 615 331 551 q 331 514 317 475 q 304 436 256 376 q 208 316 197 287 q 186 259 186 233 l 186 221 q 186 210 180 208 q 174 205 155 205 q 137 205 129 213 q 122 221 111 255 q 101 290 101 317 q 101 372 147 450 q 179 505 179 532 q 179 583 120 583 q 76 583 34 548 z m 71 78 q 71 114 96 139 q 122 165 158 165 q 194 165 219 139 q 245 114 245 78 q 245 42 219 17 q 194 -9 158 -9 q 122 -9 96 17 q 71 42 71 78 z"},"<":{"x_min":0,"x_max":584,"ha":584,"o":"m 47 295 l 47 415 l 538 628 l 538 491 l 195 355 l 538 219 l 538 82 z"},"'":{"x_min":0,"x_max":240,"ha":240,"o":"m 164 461 l 77 461 l 53 595 l 53 716 l 188 716 l 188 595 z"},"=":{"x_min":0,"x_max":584,"ha":584,"o":"m 42 398 l 42 526 l 542 526 l 542 398 z m 42 180 l 42 308 l 542 308 l 542 180 z"},"a":{"x_min":0,"x_max":531,"ha":531,"o":"m 531 114 l 531 33 q 458 -9 395 -9 q 327 -9 314 43 q 238 -9 162 -9 q 108 -9 71 25 q 33 59 33 104 q 33 164 72 201 q 111 238 307 296 q 312 373 227 373 q 135 373 57 296 l 57 414 q 148 470 257 470 q 452 470 452 330 l 452 120 q 452 88 476 88 q 494 88 531 114 z m 307 112 l 307 223 q 234 198 207 177 q 180 157 180 126 q 180 106 194 92 q 208 77 227 77 q 268 77 307 112 z"},"L":{"x_min":0,"x_max":615,"ha":615,"o":"m 596 125 l 596 0 l 76 0 l 76 682 l 246 682 l 246 125 z"},"3":{"x_min":0,"x_max":552,"ha":552,"o":"m 203 294 l 203 414 q 246 414 271 438 q 297 462 297 495 q 297 529 270 552 q 242 574 200 574 q 143 574 75 541 l 75 661 q 143 691 231 691 q 328 691 389 644 q 449 598 449 524 q 449 422 348 366 q 468 319 468 191 q 468 100 402 46 q 336 -9 225 -9 q 135 -9 58 30 l 58 162 q 135 108 202 108 q 250 108 279 133 q 309 158 309 198 q 309 238 281 265 q 252 292 203 294 z"},";":{"x_min":0,"x_max":271,"ha":271,"o":"m 48 374 q 48 410 73 435 q 99 461 135 461 q 171 461 197 435 q 222 410 222 374 q 222 338 197 313 q 171 287 135 287 q 99 287 73 313 q 48 338 48 374 z m 50 -169 l 50 -138 q 96 -94 96 -25 q 96 -17 95 -9 q 44 11 44 64 q 44 98 67 121 q 91 143 126 143 q 170 143 198 111 q 226 79 226 29 q 226 -43 177 -102 q 127 -160 50 -169 z"},"J":{"x_min":0,"x_max":333,"ha":333,"o":"m 259 682 l 259 63 q 259 -199 18 -199 q -5 -199 -32 -197 l -32 -63 q -19 -65 -6 -65 q 89 -65 89 60 l 89 682 z"},"V":{"x_min":0,"x_max":719,"ha":719,"o":"m 719 682 l 404 -9 l 330 -9 l 0 682 l 185 682 l 365 293 l 536 682 z"},"\"":{"x_min":0,"x_max":479,"ha":479,"o":"m 402 461 l 315 461 l 291 595 l 291 716 l 426 716 l 426 595 z m 53 716 l 188 716 l 188 595 l 164 461 l 77 461 l 53 595 z"},"7":{"x_min":0,"x_max":552,"ha":552,"o":"m 133 43 l 316 546 l 64 546 l 64 682 l 515 682 l 515 674 l 269 -9 z"},"S":{"x_min":0,"x_max":604,"ha":604,"o":"m 539 638 l 539 505 q 403 566 323 566 q 277 566 250 551 q 223 535 223 510 q 223 490 242 473 q 262 455 337 427 q 413 399 458 375 q 504 352 537 308 q 570 265 570 198 q 570 104 498 47 q 426 -9 308 -9 q 181 -9 62 57 l 62 204 q 130 158 183 137 q 236 116 295 116 q 395 116 395 179 q 395 201 375 220 q 355 239 279 266 q 202 293 157 317 q 113 340 80 384 q 48 427 48 495 q 48 583 119 637 q 189 691 308 691 q 417 691 539 638 z"},"}":{"x_min":0,"x_max":385,"ha":385,"o":"m 356 200 q 302 200 275 167 q 249 134 249 51 l 249 -28 q 249 -122 206 -166 q 163 -210 66 -210 l 22 -210 l 22 -93 l 28 -93 q 94 -93 109 -76 q 123 -59 123 18 q 123 117 138 167 q 152 218 208 257 q 152 296 138 347 q 123 397 123 496 q 123 573 109 590 q 94 607 28 607 l 22 607 l 22 724 l 66 724 q 163 724 206 680 q 249 636 249 542 l 249 463 q 249 380 275 347 q 302 314 356 314 z"},"Z":{"x_min":0,"x_max":698,"ha":698,"o":"m 666 682 l 294 125 l 666 125 l 666 0 l 4 0 l 379 557 l 30 557 l 30 682 z"},"x":{"x_min":0,"x_max":552,"ha":552,"o":"m 535 461 l 353 236 l 549 0 l 381 0 l 272 143 l 167 0 l 4 0 l 192 236 l 4 461 l 173 461 l 272 328 l 366 461 z"},")":{"x_min":0,"x_max":385,"ha":385,"o":"m 6 -230 q 184 -29 184 231 q 184 495 6 691 l 109 691 q 216 606 278 481 q 340 356 340 231 q 340 105 279 -18 q 218 -142 109 -230 z"},"&":{"x_min":0,"x_max":750,"ha":750,"o":"m 580 354 l 726 354 q 668 219 589 150 l 726 0 l 519 0 l 469 54 q 370 -9 255 -9 q 162 -9 101 43 q 39 94 39 171 q 39 286 192 364 q 130 449 130 515 q 130 591 189 641 q 248 691 339 691 q 426 691 481 645 q 536 600 536 529 q 536 429 409 354 l 502 247 q 546 291 580 354 z m 335 435 q 403 475 403 521 q 403 546 385 562 q 368 578 340 578 q 312 578 295 563 q 277 548 277 526 q 277 487 335 435 z m 390 142 l 269 276 q 199 231 199 184 q 199 151 225 128 q 250 104 285 104 q 334 104 390 142 z"},"_":{"x_min":0,"x_max":500,"ha":500,"o":"m -6 -75 l 506 -75 l 506 -125 l -6 -125 z"},"v":{"x_min":0,"x_max":510,"ha":510,"o":"m 215 -9 l 2 461 l 157 461 l 255 207 l 354 461 l 508 461 l 296 -9 z"},"O":{"x_min":0,"x_max":875,"ha":875,"o":"m 438 691 q 612 691 720 586 q 828 480 828 341 q 828 199 719 95 q 609 -9 438 -9 q 265 -9 156 95 q 47 198 47 341 q 47 481 155 586 q 263 691 438 691 z m 438 133 q 535 133 594 190 q 653 248 653 341 q 653 435 594 492 q 535 549 438 549 q 341 549 281 492 q 222 435 222 341 q 222 248 281 190 q 341 133 438 133 z"},"(":{"x_min":0,"x_max":385,"ha":385,"o":"m 379 691 q 201 495 201 231 q 201 -30 379 -230 l 276 -230 q 167 -143 106 -19 q 45 105 45 231 q 45 356 107 481 q 168 606 276 691 z"},"C":{"x_min":0,"x_max":771,"ha":771,"o":"m 712 208 l 712 59 q 584 -9 444 -9 q 262 -9 155 92 q 47 192 47 339 q 47 486 160 588 q 274 691 457 691 q 603 691 704 631 l 704 479 q 580 549 469 549 q 360 549 291 490 q 222 432 222 342 q 222 251 290 192 q 358 133 465 133 q 518 133 566 147 q 615 161 712 208 z"},"W":{"x_min":0,"x_max":1167,"ha":1167,"o":"m 583 436 l 372 -9 l 299 -9 l -1 682 l 179 682 l 340 305 l 515 682 l 652 682 l 827 305 l 987 682 l 1167 682 l 868 -9 l 795 -9 z"},"A":{"x_min":0,"x_max":781,"ha":781,"o":"m 475 682 l 778 0 l 595 0 l 539 135 l 234 135 l 183 0 l 3 0 l 278 682 z m 489 254 l 379 519 l 279 254 z"},"f":{"x_min":0,"x_max":302,"ha":302,"o":"m 226 461 l 292 461 l 292 362 l 226 362 l 226 0 l 81 0 l 81 362 l 15 362 l 15 461 l 81 461 l 81 484 q 81 581 136 636 q 190 691 283 691 q 306 691 371 682 l 371 565 q 326 571 306 571 q 226 571 226 490 z"},"Q":{"x_min":0,"x_max":875,"ha":875,"o":"m 827 -30 l 838 -44 l 705 -157 q 650 -153 592 -136 q 537 -120 480 -93 q 426 -67 374 -33 q 334 -7 281 13 q 236 29 195 58 q 153 88 121 129 q 86 173 67 223 q 47 278 47 337 q 47 479 158 585 q 269 691 440 691 q 613 691 721 585 q 829 479 829 343 q 829 232 760 140 q 692 48 575 11 q 664 -40 761 -40 q 798 -40 827 -30 z m 438 549 q 341 549 281 491 q 222 433 222 339 q 222 245 281 188 q 341 130 438 130 q 534 130 594 187 q 654 244 654 339 q 654 435 593 492 q 532 549 438 549 z"},"w":{"x_min":0,"x_max":781,"ha":781,"o":"m 391 242 l 275 -9 l 207 -9 l -1 461 l 147 461 l 244 207 l 347 461 l 435 461 l 537 207 l 634 461 l 782 461 l 575 -9 l 506 -9 z"},"-":{"x_min":0,"x_max":333,"ha":333,"o":"m 297 298 l 297 165 l 36 165 l 36 298 z"},"E":{"x_min":0,"x_max":635,"ha":635,"o":"m 581 125 l 581 0 l 78 0 l 78 682 l 574 682 l 574 557 l 248 557 l 248 414 l 559 414 l 559 289 l 248 289 l 248 125 z"},"s":{"x_min":0,"x_max":427,"ha":427,"o":"m 377 436 l 377 333 q 294 384 223 384 q 171 384 171 348 q 171 339 182 330 q 193 321 266 292 q 339 263 370 225 q 400 187 400 141 q 400 69 351 30 q 302 -9 212 -9 q 119 -9 47 25 l 47 127 q 136 88 196 88 q 266 88 266 122 q 266 135 253 147 q 240 159 166 188 q 92 216 64 251 q 37 286 37 328 q 37 391 90 431 q 142 470 228 470 q 311 470 377 436 z"},">":{"x_min":0,"x_max":584,"ha":584,"o":"m 537 295 l 46 82 l 46 219 l 389 355 l 46 491 l 46 628 l 537 415 z"},"l":{"x_min":0,"x_max":271,"ha":271,"o":"m 208 682 l 208 0 l 63 0 l 63 682 z"},"8":{"x_min":0,"x_max":552,"ha":552,"o":"m 151 360 q 67 413 67 506 q 67 589 124 640 q 181 691 274 691 q 372 691 429 636 q 486 582 486 505 q 486 410 403 360 q 505 307 505 195 q 505 103 442 47 q 379 -9 275 -9 q 174 -9 111 48 q 48 104 48 194 q 48 312 151 360 z m 278 402 q 307 402 323 428 q 340 454 340 500 q 340 591 276 591 q 247 591 230 566 q 213 542 213 498 q 213 454 230 428 q 248 402 278 402 z m 278 91 q 312 91 332 119 q 353 148 353 196 q 353 246 332 276 q 312 305 277 305 q 242 305 221 277 q 200 248 200 200 q 200 150 222 121 q 243 91 278 91 z"},"\\":{"x_min":0,"x_max":281,"ha":281,"o":"m 279 -9 l 178 -9 l 7 691 l 110 691 z"},"e":{"x_min":0,"x_max":552,"ha":552,"o":"m 510 143 l 510 52 q 427 -9 304 -9 q 183 -9 110 56 q 37 122 37 229 q 37 334 105 402 q 174 470 280 470 q 386 470 454 399 q 522 327 518 207 l 187 207 q 191 145 231 111 q 271 77 339 77 q 420 77 510 143 z m 190 283 l 390 283 q 378 384 290 384 q 201 384 190 283 z"},"b":{"x_min":0,"x_max":583,"ha":583,"o":"m 203 682 l 203 435 q 260 470 322 470 q 421 470 484 404 q 547 337 547 232 q 547 126 487 59 q 426 -9 332 -9 q 264 -9 203 35 l 203 0 l 58 0 l 58 682 z m 203 341 l 203 127 q 247 88 289 88 q 341 88 370 127 q 400 166 400 234 q 400 300 369 337 q 338 373 287 373 q 248 373 203 341 z"},"%":{"x_min":0,"x_max":719,"ha":719,"o":"m 185 691 q 251 691 299 644 q 346 597 346 530 q 346 464 299 417 q 251 369 185 369 q 119 369 71 417 q 24 464 24 530 q 24 597 71 644 q 118 691 185 691 z m 185 455 q 215 455 235 477 q 256 499 256 530 q 256 561 235 583 q 214 605 185 605 q 155 605 134 583 q 114 562 114 530 q 114 500 135 478 q 156 455 185 455 z m 638 691 l 161 -8 l 78 -8 l 558 691 z m 533 313 q 600 313 647 266 q 694 219 694 152 q 694 86 646 39 q 599 -9 533 -9 q 467 -9 419 39 q 372 86 372 152 q 372 219 419 266 q 466 313 533 313 z m 533 77 q 563 77 583 99 q 604 121 604 152 q 604 183 583 205 q 562 227 533 227 q 503 227 482 206 q 462 184 462 152 q 462 122 483 100 q 504 77 533 77 z"},"m":{"x_min":0,"x_max":958,"ha":958,"o":"m 208 461 l 208 402 q 282 470 368 470 q 487 470 534 372 q 618 470 716 470 q 795 470 846 422 q 896 374 896 296 l 896 0 l 751 0 l 751 270 q 751 319 729 346 q 706 373 666 373 q 603 373 552 295 l 552 0 l 407 0 l 407 273 q 407 321 383 347 q 359 373 319 373 q 262 373 208 309 l 208 0 l 63 0 l 63 461 z"},"#":{"x_min":0,"x_max":584,"ha":584,"o":"m -6 501 l 139 501 l 177 682 l 290 682 l 252 501 l 406 501 l 444 682 l 555 682 l 517 501 l 591 501 l 591 392 l 495 392 l 468 261 l 591 261 l 591 152 l 444 152 l 406 -29 l 295 -29 l 332 152 l 179 152 l 142 -29 l 28 -29 l 66 152 l -6 152 l -6 261 l 89 261 l 116 392 l -6 392 z m 229 392 l 202 261 l 355 261 l 382 392 z"},",":{"x_min":0,"x_max":271,"ha":271,"o":"m 50 -169 l 50 -138 q 96 -94 96 -25 q 96 -17 95 -9 q 44 11 44 64 q 44 98 67 121 q 91 143 126 143 q 170 143 198 111 q 226 79 226 29 q 226 -43 177 -102 q 127 -160 50 -169 z"},"n":{"x_min":0,"x_max":583,"ha":583,"o":"m 205 461 l 205 395 q 269 470 355 470 q 427 470 475 424 q 523 378 523 293 l 523 0 l 378 0 l 378 281 q 378 373 306 373 q 255 373 205 297 l 205 0 l 60 0 l 60 461 z"},"h":{"x_min":0,"x_max":583,"ha":583,"o":"m 207 682 l 207 393 l 209 393 q 270 470 355 470 q 429 470 476 424 q 524 377 524 294 l 524 0 l 379 0 l 379 263 q 379 364 304 364 q 255 364 207 294 l 207 0 l 62 0 l 62 682 z"},"z":{"x_min":0,"x_max":521,"ha":521,"o":"m 42 461 l 492 461 l 256 99 l 492 99 l 492 0 l 19 0 l 256 362 l 42 362 z"},"B":{"x_min":0,"x_max":698,"ha":698,"o":"m 76 682 l 371 682 q 477 682 537 631 q 597 581 597 511 q 597 422 504 375 q 574 356 612 310 q 649 263 649 200 q 649 111 588 56 q 527 0 408 0 l 76 0 z m 246 557 l 246 411 l 335 411 q 376 411 399 432 q 422 453 422 485 q 422 516 399 537 q 376 557 335 557 z m 246 286 l 246 125 l 342 125 q 410 125 439 144 q 469 163 469 209 q 469 245 441 265 q 413 286 365 286 z"},"K":{"x_min":0,"x_max":719,"ha":719,"o":"m 649 682 l 427 362 l 728 0 l 515 0 l 245 320 l 245 0 l 75 0 l 75 682 l 245 682 l 245 375 l 462 682 z"},"R":{"x_min":0,"x_max":677,"ha":677,"o":"m 76 682 l 381 682 q 480 682 542 625 q 604 567 604 486 q 604 373 487 319 q 539 296 585 193 q 631 91 674 0 l 487 0 q 470 34 429 128 q 388 223 358 250 q 329 277 295 277 l 246 277 l 246 0 l 76 0 z m 246 557 l 246 402 l 336 402 q 379 402 404 422 q 429 442 429 480 q 429 557 332 557 z"},"T":{"x_min":0,"x_max":719,"ha":719,"o":"m 692 682 l 692 557 l 445 557 l 445 0 l 275 0 l 275 557 l 28 557 l 28 682 z"},"P":{"x_min":0,"x_max":656,"ha":656,"o":"m 83 682 l 387 682 q 491 682 552 622 q 613 562 613 480 q 613 395 552 334 q 492 274 388 274 l 253 274 l 253 0 l 83 0 z m 253 557 l 253 399 l 332 399 q 438 399 438 478 q 438 522 410 540 q 381 557 313 557 z"},"|":{"x_min":0,"x_max":281,"ha":281,"o":"m 86 -221 l 86 682 l 195 682 l 195 -221 z"},"t":{"x_min":0,"x_max":406,"ha":406,"o":"m 391 461 l 391 362 l 223 362 l 223 172 q 223 138 242 118 q 261 98 294 98 q 339 98 391 125 l 391 20 q 322 -9 257 -9 q 172 -9 125 35 q 78 79 78 164 l 78 362 l 12 362 l 12 390 l 205 606 l 223 606 l 223 461 z"},"M":{"x_min":0,"x_max":885,"ha":885,"o":"m 443 429 l 662 682 l 810 682 l 810 0 l 640 0 l 640 426 l 456 212 l 430 212 l 246 426 l 246 0 l 76 0 l 76 682 l 224 682 z"},"g":{"x_min":0,"x_max":542,"ha":542,"o":"m 530 461 l 530 364 l 464 364 q 487 325 487 287 q 487 233 447 188 q 407 143 328 134 q 250 125 240 118 q 229 110 229 98 q 229 86 243 78 q 256 71 350 63 q 444 55 481 13 q 518 -28 518 -75 q 518 -151 455 -190 q 393 -230 274 -230 q 153 -230 90 -193 q 28 -157 28 -96 q 28 -12 151 21 q 95 38 95 81 q 95 132 179 151 q 123 161 86 200 q 50 239 50 293 q 50 359 103 410 q 155 461 256 461 z m 269 375 q 233 375 209 351 q 185 326 185 291 q 185 257 210 233 q 235 208 269 208 q 303 208 328 234 q 352 260 352 296 q 352 329 328 352 q 305 375 269 375 z m 281 -144 q 327 -144 356 -127 q 385 -110 385 -86 q 385 -35 272 -35 q 221 -35 191 -50 q 162 -65 162 -90 q 162 -144 281 -144 z"},"j":{"x_min":0,"x_max":271,"ha":271,"o":"m 58 611 q 58 644 82 667 q 105 691 138 691 q 171 691 194 667 q 218 644 218 611 q 218 578 194 554 q 171 531 138 531 q 105 531 82 554 q 58 578 58 611 z m 211 461 l 211 -13 q 211 -108 164 -165 q 117 -221 37 -230 l -9 -99 q 66 -88 66 22 l 66 461 z"},"i":{"x_min":0,"x_max":271,"ha":271,"o":"m 55 611 q 55 644 79 667 q 102 691 135 691 q 168 691 191 667 q 215 644 215 611 q 215 578 191 554 q 168 531 135 531 q 102 531 79 554 q 55 578 55 611 z m 208 461 l 208 0 l 63 0 l 63 461 z"},"y":{"x_min":0,"x_max":510,"ha":510,"o":"m 509 461 l 200 -221 l 46 -221 l 181 75 l 1 461 l 156 461 l 253 224 l 357 461 z"},"@":{"x_min":0,"x_max":979,"ha":979,"o":"m 868 9 l 972 9 q 918 -98 808 -154 q 697 -210 543 -210 q 326 -210 178 -94 q 30 22 30 230 q 30 436 162 582 q 294 728 531 728 q 715 728 831 624 q 946 521 946 355 q 946 214 853 107 q 760 0 623 0 q 547 0 534 56 q 478 0 402 0 q 319 0 267 57 q 214 114 214 205 q 214 327 288 428 q 362 529 476 529 q 564 529 607 463 l 619 517 l 748 517 l 670 147 q 667 134 667 125 q 667 100 686 100 q 732 100 795 178 q 858 257 858 357 q 858 478 771 559 q 684 640 523 640 q 331 640 225 521 q 118 402 118 231 q 118 66 233 -28 q 347 -122 531 -122 q 765 -122 868 9 z m 489 441 q 423 441 381 369 q 340 296 340 203 q 340 151 364 120 q 389 89 428 89 q 498 89 539 168 q 580 248 580 327 q 580 379 555 410 q 530 441 489 441 z"},".":{"x_min":0,"x_max":271,"ha":271,"o":"m 48 78 q 48 114 73 139 q 99 165 135 165 q 171 165 197 139 q 222 114 222 78 q 222 42 197 17 q 171 -9 135 -9 q 99 -9 73 17 q 48 42 48 78 z"},"p":{"x_min":0,"x_max":583,"ha":583,"o":"m 202 461 l 202 421 q 260 470 334 470 q 424 470 486 402 q 548 334 548 236 q 548 125 486 58 q 423 -9 321 -9 q 257 -9 202 23 l 202 -230 l 57 -230 l 57 461 z m 202 330 l 202 118 q 243 88 286 88 q 339 88 370 126 q 401 164 401 228 q 401 294 372 331 q 344 367 292 367 q 249 367 202 330 z"},"X":{"x_min":0,"x_max":813,"ha":813,"o":"m 779 682 l 512 353 l 808 0 l 588 0 l 403 225 l 221 0 l 4 0 l 293 353 l 20 682 l 240 682 l 403 481 l 563 682 z"},"*":{"x_min":0,"x_max":469,"ha":469,"o":"m 296 301 q 299 292 299 285 q 299 264 271 264 l 209 264 q 178 264 178 284 q 178 292 181 301 l 226 443 l 213 454 l 114 352 q 92 330 82 330 q 73 330 64 346 l 37 399 q 30 411 30 420 q 30 438 51 443 l 204 476 l 204 478 l 51 512 q 30 518 30 535 q 30 543 34 552 l 64 609 q 74 626 82 626 q 91 626 114 603 l 213 501 l 226 512 l 181 654 q 178 663 178 670 q 178 691 209 691 l 268 691 q 299 691 299 670 q 299 664 296 654 l 252 512 l 264 501 l 363 603 q 386 626 395 626 q 402 626 414 606 l 438 561 q 448 543 448 533 q 448 517 426 512 l 274 478 l 274 476 l 426 443 q 448 438 448 420 q 448 410 440 397 l 415 350 q 402 329 394 329 q 386 329 372 344 l 264 454 l 252 443 z"},"Y":{"x_min":0,"x_max":708,"ha":708,"o":"m 269 0 l 269 319 l 0 682 l 206 682 l 354 468 l 503 682 l 708 682 l 439 319 l 439 0 z"},"c":{"x_min":0,"x_max":500,"ha":500,"o":"m 463 126 l 463 22 q 378 -9 307 -9 q 186 -9 113 56 q 40 122 40 229 q 40 334 114 402 q 187 470 301 470 q 374 470 456 440 l 456 332 q 396 363 338 363 q 273 363 234 327 q 195 291 195 230 q 195 169 233 132 q 271 94 333 94 q 379 94 463 126 z"},"!":{"x_min":0,"x_max":271,"ha":271,"o":"m 219 583 q 219 515 196 381 q 173 247 164 226 q 155 206 136 206 q 116 206 108 223 q 101 240 76 367 q 52 494 52 583 q 52 691 136 691 q 219 691 219 583 z m 49 78 q 49 114 74 139 q 100 165 136 165 q 172 165 198 139 q 223 114 223 78 q 223 42 198 17 q 172 -9 136 -9 q 100 -9 74 17 q 49 42 49 78 z"},"/":{"x_min":0,"x_max":281,"ha":281,"o":"m 0 -9 l 169 691 l 272 691 l 101 -9 z"},"[":{"x_min":0,"x_max":438,"ha":438,"o":"m 419 682 l 419 573 l 229 573 l 229 -112 l 419 -112 l 419 -221 l 84 -221 l 84 682 z"},"6":{"x_min":0,"x_max":552,"ha":552,"o":"m 423 691 l 265 433 q 288 439 311 439 q 387 439 442 380 q 496 321 496 224 q 496 124 432 58 q 367 -9 270 -9 q 170 -9 107 58 q 44 125 44 233 q 44 350 137 500 l 255 691 z m 273 119 q 308 119 329 146 q 350 173 350 220 q 350 266 329 294 q 307 322 272 322 q 237 322 216 294 q 196 266 196 218 q 196 171 216 145 q 237 119 273 119 z"},"r":{"x_min":0,"x_max":448,"ha":448,"o":"m 209 461 l 209 329 l 211 329 q 274 470 358 470 q 398 470 454 428 l 414 300 q 360 334 328 334 q 278 334 243 272 q 209 209 209 199 l 209 0 l 64 0 l 64 461 z"},"2":{"x_min":0,"x_max":552,"ha":552,"o":"m 505 139 l 505 0 l 54 0 l 54 19 q 116 95 196 211 q 276 327 297 375 q 318 424 318 470 q 318 510 291 539 q 265 568 227 568 q 152 568 63 483 l 63 626 q 163 691 254 691 q 354 691 412 639 q 470 587 470 497 q 470 374 285 139 z"},"{":{"x_min":0,"x_max":385,"ha":385,"o":"m 29 314 q 83 314 110 347 q 136 380 136 463 l 136 542 q 136 636 179 680 q 223 724 319 724 l 363 724 l 363 607 l 357 607 q 291 607 277 590 q 262 573 262 496 q 262 397 248 347 q 233 296 177 257 q 233 218 248 167 q 262 117 262 18 q 262 -59 277 -76 q 291 -93 357 -93 l 363 -93 l 363 -210 l 319 -210 q 223 -210 179 -166 q 136 -122 136 -28 l 136 51 q 136 134 110 167 q 83 200 29 200 z"},"9":{"x_min":0,"x_max":552,"ha":552,"o":"m 125 -9 l 282 247 q 259 241 236 241 q 160 241 105 303 q 50 366 50 455 q 50 555 115 623 q 181 691 277 691 q 374 691 438 623 q 502 555 502 453 q 502 332 412 186 l 292 -9 z m 274 357 q 307 357 328 386 q 350 415 350 459 q 350 507 330 535 q 309 563 274 563 q 240 563 218 534 q 196 505 196 460 q 196 414 218 385 q 239 357 274 357 z"}," ":{"x_min":0,"x_max":278,"ha":278,"o":""},"I":{"x_min":0,"x_max":333,"ha":333,"o":"m 252 682 l 252 0 l 82 0 l 82 682 z"},"H":{"x_min":0,"x_max":833,"ha":833,"o":"m 757 682 l 757 0 l 587 0 l 587 276 l 247 276 l 247 0 l 77 0 l 77 682 l 247 682 l 247 408 l 587 408 l 587 682 z"},"4":{"x_min":0,"x_max":552,"ha":552,"o":"m 458 691 l 458 277 l 504 277 l 504 168 l 458 168 l 458 0 l 307 0 l 307 168 l 41 168 l 41 277 l 362 691 z m 161 277 l 307 277 l 307 463 z"},"~":{"x_min":0,"x_max":584,"ha":584,"o":"m 16 175 l 16 306 q 103 378 176 378 q 220 378 302 339 q 384 300 421 300 q 482 300 567 374 l 567 244 q 535 213 490 192 q 445 172 409 172 q 366 172 281 211 q 197 251 168 251 q 105 251 16 175 z"},"D":{"x_min":0,"x_max":802,"ha":802,"o":"m 75 682 l 376 682 q 550 682 652 587 q 753 491 753 340 q 753 181 650 91 q 547 0 357 0 l 75 0 z m 245 557 l 245 125 l 356 125 q 464 125 521 184 q 578 244 578 341 q 578 441 520 499 q 462 557 354 557 z"},"^":{"x_min":0,"x_max":584,"ha":584,"o":"m 56 292 l 240 682 l 348 682 l 527 292 l 388 292 l 292 531 l 196 292 z"},"0":{"x_min":0,"x_max":552,"ha":552,"o":"m 277 691 q 385 691 446 598 q 507 504 507 344 q 507 178 448 84 q 389 -9 279 -9 q 167 -9 106 84 q 44 177 44 341 q 44 507 107 599 q 169 691 277 691 z m 277 119 q 318 119 336 169 q 355 218 355 355 q 355 469 337 516 q 318 563 276 563 q 234 563 215 517 q 196 471 196 334 q 196 219 215 169 q 234 119 277 119 z"},"F":{"x_min":0,"x_max":604,"ha":604,"o":"m 546 682 l 546 557 l 246 557 l 246 405 l 546 405 l 546 280 l 246 280 l 246 0 l 76 0 l 76 682 z"},"`":{"x_min":0,"x_max":333,"ha":333,"o":"m 8 676 l 173 676 l 247 530 l 173 530 z"},"k":{"x_min":0,"x_max":552,"ha":552,"o":"m 208 682 l 208 233 l 210 233 l 389 461 l 559 461 l 379 233 l 567 0 l 389 0 l 210 227 l 208 227 l 208 0 l 63 0 l 63 682 z"},"u":{"x_min":0,"x_max":583,"ha":583,"o":"m 378 0 l 378 66 q 314 -9 229 -9 q 154 -9 107 38 q 60 84 60 166 l 60 461 l 205 461 l 205 176 q 205 88 278 88 q 319 88 348 120 q 377 152 377 167 l 377 461 l 523 461 l 523 0 z"},"]":{"x_min":0,"x_max":438,"ha":438,"o":"m 19 -221 l 19 -112 l 209 -112 l 209 573 l 19 573 l 19 682 l 354 682 l 354 -221 z"},"U":{"x_min":0,"x_max":823,"ha":823,"o":"m 582 682 l 752 682 l 752 295 q 752 146 664 68 q 575 -9 411 -9 q 249 -9 159 69 q 70 147 70 294 l 70 682 l 240 682 l 240 290 q 240 219 287 176 q 333 133 409 133 q 488 133 535 177 q 582 221 582 302 z"},"o":{"x_min":0,"x_max":594,"ha":594,"o":"m 298 470 q 406 470 482 407 q 557 343 557 230 q 557 116 480 54 q 404 -9 298 -9 q 183 -9 110 58 q 37 125 37 231 q 37 339 112 405 q 186 470 298 470 z m 298 77 q 402 77 402 234 q 402 384 298 384 q 248 384 220 344 q 192 305 192 231 q 192 77 298 77 z"},"N":{"x_min":0,"x_max":844,"ha":844,"o":"m 767 682 l 767 0 l 624 0 l 247 437 l 247 0 l 77 0 l 77 682 l 233 682 l 597 265 l 597 682 z"},"+":{"x_min":0,"x_max":584,"ha":584,"o":"m 42 289 l 42 417 l 228 417 l 228 603 l 356 603 l 356 417 l 542 417 l 542 289 l 356 289 l 356 103 l 228 103 l 228 289 z"},"G":{"x_min":0,"x_max":813,"ha":813,"o":"m 727 635 l 727 486 q 597 549 472 549 q 352 549 287 488 q 222 428 222 334 q 222 244 287 188 q 352 133 458 133 q 514 133 571 157 l 571 237 l 472 237 l 472 362 l 741 362 l 741 83 q 701 42 618 17 q 535 -9 454 -9 q 276 -9 161 90 q 47 188 47 340 q 47 495 161 593 q 276 691 458 691 q 608 691 727 635 z"},"q":{"x_min":0,"x_max":583,"ha":583,"o":"m 380 461 l 525 461 l 525 -230 l 380 -230 l 380 23 q 326 -9 261 -9 q 160 -9 97 59 q 35 126 35 236 q 35 336 96 403 q 158 470 249 470 q 323 470 380 421 z m 380 118 l 380 330 q 335 367 290 367 q 239 367 210 331 q 182 294 182 228 q 182 163 213 125 q 243 88 296 88 q 339 88 380 118 z"},"d":{"x_min":0,"x_max":583,"ha":583,"o":"m 524 682 l 524 0 l 379 0 l 379 37 q 323 -9 251 -9 q 159 -9 97 60 q 35 128 35 231 q 35 336 98 403 q 161 470 259 470 q 320 470 379 441 l 379 682 z m 379 126 l 379 346 q 339 373 298 373 q 243 373 213 335 q 182 297 182 228 q 182 165 212 126 q 243 88 293 88 q 337 88 379 126 z"},"1":{"x_min":0,"x_max":552,"ha":552,"o":"m 349 682 l 349 0 l 198 0 l 198 682 z"},"5":{"x_min":0,"x_max":552,"ha":552,"o":"m 453 682 l 453 545 l 235 545 l 235 418 q 344 425 410 364 q 476 302 476 208 q 476 109 409 50 q 342 -9 229 -9 q 130 -9 64 28 l 64 152 q 143 108 209 108 q 256 108 286 135 q 317 162 317 203 q 317 249 280 275 q 243 301 177 301 q 141 301 99 293 l 99 682 z"}}}
